<?xml version="1.0" encoding="UTF-8"?>
<!DOCTYPE svg PUBLIC "-//W3C//DTD SVG 1.1//EN" "http://www.w3.org/Graphics/SVG/1.1/DTD/svg11.dtd">
<!-- Creator: CorelDRAW X8 -->
<svg xmlns="http://www.w3.org/2000/svg" xml:space="preserve" width="265mm" height="113mm" version="1.1" style="shape-rendering:geometricPrecision; text-rendering:geometricPrecision; image-rendering:optimizeQuality; fill-rule:evenodd; clip-rule:evenodd"
viewBox="0 0 26500 11300"
 xmlns:xlink="http://www.w3.org/1999/xlink">
 <defs>
  <style type="text/css">
   <![CDATA[
    .str1 {stroke:#2B2A29;stroke-width:20}
    .str0 {stroke:#2B2A29;stroke-width:7.62}
    .fil7 {fill:none}
    .fil0 {fill:#FEFEFE}
    .fil1 {fill:#252423}
    .fil4 {fill:black}
    .fil5 {fill:white}
    .fil3 {fill:black}
    .fil2 {fill:#FEFEFE;fill-rule:nonzero}
    .fil6 {fill:black;fill-rule:nonzero}
    .fil9 {fill:url(#id2);fill-rule:nonzero}
    .fil8 {fill:url(#id3);fill-rule:nonzero}
   ]]>
  </style>
   <mask id="id0">
  <radialGradient id="id1" gradientUnits="userSpaceOnUse" cx="-1755.6" cy="-387.93" r="0" fx="-1755.6" fy="-387.93">
   <stop offset="0" style="stop-opacity:1; stop-color:white"/>
   <stop offset="0.54902" style="stop-opacity:-127.502; stop-color:white"/>
   <stop offset="1" style="stop-opacity:0; stop-color:white"/>
  </radialGradient>
    <rect style="fill:url(#id1)" x="-1756" y="-388" width="29716" height="12896"/>
   </mask>
  <linearGradient id="id2" gradientUnits="userSpaceOnUse" x1="730.76" y1="3562.75" x2="25436.3" y2="3562.75">
   <stop offset="0" style="stop-opacity:1; stop-color:black"/>
   <stop offset="1" style="stop-opacity:0.898039; stop-color:#AD2525"/>
  </linearGradient>
  <linearGradient id="id3" gradientUnits="userSpaceOnUse" x1="3359.76" y1="7663.86" x2="25356.9" y2="7663.86">
   <stop offset="0" style="stop-opacity:1; stop-color:black"/>
   <stop offset="1" style="stop-opacity:0.898039; stop-color:#AD2B2B"/>
  </linearGradient>
 </defs>
<symbol id="protola" viewBox="3527 2287 19446 6726">
 <path class="fil0" d="M6672 3895c2016,1073 4294,1634 6579,1633 2284,0 4561,-562 6576,-1634 -215,24 -430,42 -646,56 -130,8 -248,-76 -289,-198 -44,-133 12,-280 138,-345l2 -1 2 -1c632,-306 1239,-664 1814,-1067l10 -7 10 -6c82,-47 181,-51 267,-9l4 2 4 2c72,38 125,105 146,184 131,466 247,937 346,1411 389,276 788,540 1194,791 90,51 145,145 144,249 -1,94 -46,181 -123,235 -320,225 -648,438 -982,640l400 687 -219 128c-2652,1549 -5728,2368 -8798,2368 -3070,1 -6149,-816 -8800,-2368l-219 -128 400 -687c-335,-202 -662,-415 -982,-640 -79,-55 -124,-145 -123,-241 1,-103 56,-196 146,-245 406,-251 804,-514 1194,-790 100,-473 215,-942 346,-1408 21,-80 75,-148 150,-186l11 -6 11 -4c91,-36 193,-26 272,31 573,402 1177,758 1806,1065 128,62 186,209 143,343 -39,124 -158,209 -289,201 -215,-13 -430,-32 -645,-55z"/>
 <path class="fil1" d="M4789 5628l890 -1481 358 -594c435,70 868,117 1295,143 15,1 27,-9 32,-25 5,-15 0,-31 -12,-37 -643,-313 -1258,-677 -1843,-1087 -8,-6 -18,-6 -30,-1 -10,5 -18,14 -20,25 -138,489 -259,988 -363,1493 -420,299 -853,587 -1298,861 -12,5 -17,15 -17,27 0,13 5,23 15,30 323,228 655,443 993,646zm16034 -1482l-358 -595c-438,70 -870,119 -1300,145 -15,1 -27,-10 -32,-25 -5,-15 0,-31 12,-37 645,-313 1263,-677 1849,-1088 10,-6 20,-7 30,-2 9,5 17,14 19,26 139,490 260,988 364,1493 417,300 850,588 1295,862 12,6 17,16 17,28 0,12 -5,22 -15,30 -324,227 -655,442 -993,645l-888 -1482 0 0z"/>
 <path class="fil1" d="M13251 8759c3023,5 6055,-806 8670,-2333l-1498 -2574c-2165,1264 -4663,1934 -7172,1930 -2511,4 -5009,-664 -7174,-1928l-1498 2572c2615,1530 5650,2339 8672,2333z"/>
 <path class="fil0" d="M20257 5468c72,-37 161,-10 201,63 37,72 5,161 -70,200 -76,37 -165,8 -202,-65 -35,-73 -3,-161 71,-198z"/>
 <path class="fil0" d="M6245 5469c74,37 104,125 69,198 -37,73 -126,102 -202,65 -75,-38 -104,-128 -67,-200 37,-72 126,-100 200,-63z"/>
 <path class="fil2 str0" d="M7219 6204l-194 494c-42,107 -45,181 -11,224 46,60 130,114 252,162l124 48 -18 46 -1386 -542 18 -46 122 48c136,53 244,68 321,45 41,-13 82,-68 119,-164l428 -1095c42,-106 47,-181 14,-223 -49,-61 -134,-115 -256,-163l-122 -48 18 -46 1186 464c289,113 511,218 667,315 154,96 274,204 360,323 86,119 108,229 69,330 -54,138 -185,216 -393,235 -208,18 -471,-35 -789,-159 -78,-31 -161,-67 -249,-108 -88,-41 -182,-88 -280,-140zm27 -72c81,41 153,77 217,106 63,30 118,54 163,72 166,64 320,86 466,66 146,-20 240,-83 281,-189 29,-73 27,-152 -6,-237 -32,-84 -95,-163 -187,-235 -93,-72 -206,-134 -338,-186 -82,-32 -188,-64 -321,-98l-275 701zm2505 444l-60 270c230,-137 446,-183 646,-138 91,20 162,51 215,94 53,43 76,83 67,121 -8,35 -35,59 -83,73 -49,14 -103,14 -162,1 -58,-13 -119,-43 -184,-89 -65,-47 -116,-74 -150,-82 -30,-6 -64,-5 -103,5 -82,19 -173,61 -271,125l-128 572c-15,67 -10,121 14,162 16,28 50,57 101,84 52,28 129,53 232,76l-11 48 -1171 -262 11 -48c116,26 204,36 264,29 45,-5 79,-20 102,-47 12,-13 26,-54 41,-124l104 -462c31,-139 45,-223 40,-252 -6,-29 -21,-53 -47,-72 -26,-18 -62,-33 -104,-42 -52,-12 -112,-18 -180,-20l-13 -53 726 8 104 23zm2020 330c354,33 631,129 832,290 171,136 249,282 235,438 -10,109 -71,215 -181,318 -111,102 -257,174 -438,214 -182,41 -380,51 -596,31 -352,-33 -625,-132 -819,-298 -163,-139 -238,-286 -224,-440 10,-111 74,-218 190,-319 116,-100 264,-169 443,-206 178,-36 364,-46 558,-28zm-87 80c-90,-8 -182,-2 -276,17 -93,20 -171,61 -233,126 -63,65 -100,153 -110,263 -16,177 37,336 160,477 123,141 296,222 517,243 164,15 303,-8 417,-69 113,-61 178,-178 194,-351 21,-216 -53,-395 -220,-535 -112,-96 -262,-153 -449,-171zm2068 -387l13 403 547 -18 3 91 -547 20 25 795c2,79 26,132 70,158 44,27 100,39 169,36 56,-1 110,-12 163,-33 52,-20 92,-48 119,-85l100 -3c-57,90 -139,158 -247,207 -109,47 -220,73 -337,77 -78,3 -155,-6 -231,-27 -76,-20 -132,-51 -169,-93 -37,-41 -58,-106 -61,-194l-26 -827 -372 11 -1 -42c94,-23 189,-59 286,-108 97,-50 183,-108 258,-174 38,-35 91,-99 159,-191l79 -3zm1796 205c353,-48 644,-17 877,93 197,94 306,219 328,374 15,108 -20,225 -105,350 -84,125 -210,228 -377,309 -168,80 -359,135 -574,165 -350,48 -639,13 -865,-104 -191,-99 -297,-225 -318,-378 -15,-111 22,-229 113,-354 90,-124 218,-225 384,-301 165,-76 344,-127 537,-154zm-66 98c-90,12 -178,39 -265,79 -86,40 -153,99 -199,176 -46,77 -62,171 -47,280 25,177 113,319 265,429 151,110 338,149 557,119 164,-23 294,-77 391,-162 97,-85 134,-214 110,-386 -29,-215 -142,-372 -336,-471 -131,-68 -290,-90 -476,-64zm1951 -1168l436 1568c21,74 45,120 71,138 28,18 64,28 111,28 45,1 127,-15 243,-48l13 48 -1106 308 -13 -48c104,-29 173,-54 207,-76 35,-21 60,-48 74,-79 14,-32 12,-84 -9,-157l-299 -1074c-36,-132 -65,-211 -84,-238 -20,-27 -45,-43 -73,-47 -28,-4 -63,0 -102,11 -42,11 -94,33 -156,65l-55 -36 631 -332 111 -31zm2298 1010c-185,182 -304,291 -355,329 -77,56 -163,103 -259,143 -150,62 -285,85 -404,72 -119,-14 -196,-65 -232,-152 -23,-56 -19,-113 12,-173 41,-83 132,-182 271,-297 141,-116 382,-286 725,-510l-18 -44c-46,-113 -112,-176 -198,-190 -86,-14 -194,6 -325,60 -99,40 -172,87 -219,139 -48,52 -65,97 -50,133l35 70c15,38 9,75 -20,111 -28,36 -74,67 -133,91 -59,24 -112,34 -158,27 -46,-6 -77,-28 -92,-65 -29,-71 13,-165 128,-282 114,-116 298,-226 549,-330 193,-79 358,-127 495,-144 103,-13 189,-1 255,35 43,24 88,91 133,200l158 384c44,108 75,173 93,193 18,22 38,32 59,34 22,0 45,-4 68,-14 26,-11 47,-23 64,-36 28,-25 80,-81 155,-170l28 70c-126,197 -270,329 -432,396 -78,32 -146,43 -203,34 -58,-9 -101,-47 -130,-114zm-33 -80l-177 -432c-220,148 -360,247 -422,296 -110,88 -184,163 -222,225 -38,62 -47,116 -28,163 25,59 79,94 164,105 84,12 171,-1 260,-38 120,-50 262,-156 425,-319z"/>
</symbol>
<symbol id="Logo" viewBox="6240 -1360 14020 14020">
 <path class="fil1 str0" d="M10441 346c-613,324 -1153,746 -1608,1241 -56,61 -52,156 9,212 158,145 278,335 338,557 169,627 -201,1272 -828,1442 -222,60 -446,52 -651,-11 -79,-24 -163,20 -188,99 -198,642 -289,1322 -260,2014 4,83 74,147 156,144 537,-23 1037,327 1183,867 146,540 -109,1095 -583,1346 -73,38 -101,130 -63,202 324,613 746,1153 1241,1608 61,56 156,52 212,-9 145,-158 335,-278 557,-338 627,-169 1272,201 1442,828 60,222 52,446 -11,651 -24,79 20,163 99,188 642,198 1322,290 2014,260 83,-3 147,-74 144,-156 -23,-537 327,-1037 867,-1183 540,-146 1095,109 1346,583 38,73 130,101 202,63 613,-324 1153,-746 1608,-1241 56,-61 52,-156 -9,-212 -158,-145 -278,-335 -338,-557 -169,-627 201,-1272 828,-1442 222,-60 446,-52 651,11 79,24 163,-20 188,-99 198,-642 290,-1322 260,-2014 -3,-83 -74,-147 -156,-144 -537,23 -1037,-327 -1183,-867 -146,-540 109,-1095 584,-1346 73,-39 101,-130 62,-203 -324,-612 -746,-1153 -1241,-1607 -61,-56 -156,-52 -212,9 -145,158 -335,278 -557,338 -627,169 -1272,-201 -1442,-828 -60,-222 -52,-446 11,-651 24,-79 -20,-163 -99,-188 -642,-198 -1322,-289 -2014,-260 -83,4 -147,74 -144,156 23,537 -327,1037 -867,1183 -540,146 -1095,-109 -1346,-583 -38,-73 -129,-101 -202,-63zm-1252 5181c0,445 10,677 117,1103 67,265 153,504 259,732 166,358 334,601 574,899 105,130 355,389 493,497 49,38 87,72 136,110 212,166 525,362 767,469 478,213 1038,373 1600,373 622,0 921,-47 1466,-228l354 -145c58,-29 107,-46 165,-81 53,-32 105,-54 158,-86 27,-16 51,-29 76,-44l229 -151c246,-168 582,-469 779,-712 94,-115 240,-305 315,-430 93,-159 143,-233 226,-401 14,-29 23,-56 39,-87 98,-194 204,-530 255,-736 173,-696 143,-1435 -53,-2120 -39,-136 -142,-416 -205,-539 -163,-324 -379,-709 -632,-969 -24,-25 -32,-42 -59,-68 -27,-26 -35,-42 -59,-68 -68,-74 -137,-128 -191,-181 -23,-24 -35,-38 -61,-58l-349 -277c-135,-93 -311,-206 -458,-279 -553,-274 -1122,-460 -1775,-460 -571,0 -928,47 -1445,223 -63,22 -116,44 -177,69 -268,107 -416,192 -655,335 -49,29 -105,68 -152,103 -98,73 -180,126 -279,212 -353,308 -522,481 -813,914 -386,576 -645,1392 -645,2081z"/>
 <path class="fil3" d="M9563 5501l0 51c271,0 541,64 796,135 275,77 539,181 796,296 161,73 385,167 531,256l617 323c143,71 278,139 418,209 85,43 356,179 440,186 -11,43 -75,48 -111,58 -632,184 -1343,278 -1972,27 -280,-112 -465,-228 -695,-414 -26,-21 -40,-40 -67,-60 -46,-36 -82,-79 -125,-121 -87,-87 -155,-170 -233,-266 -75,-92 -138,-189 -204,-287l-96 -149c-23,-35 -77,-132 -104,-151 0,545 110,1135 347,1617l122 235c28,51 53,97 83,145 91,141 188,278 294,409 202,249 462,488 726,671 139,96 279,186 432,262l320 146c60,24 111,43 173,64 795,264 1599,266 2392,2 330,-110 646,-281 926,-471 183,-123 348,-273 504,-428 79,-79 153,-155 222,-243 570,-720 851,-1470 851,-2409 -56,37 -149,226 -192,291l-149 215c-305,411 -676,738 -1159,932 -656,264 -1332,169 -1990,-14 -28,-7 -41,-11 -65,-19 -28,-11 -44,-12 -52,-42 59,-5 171,-63 221,-83l214 -100c421,-202 827,-427 1244,-635 284,-142 574,-276 877,-377 318,-105 689,-210 1042,-210 0,-161 -17,-342 -41,-484 -35,-209 -76,-387 -140,-580 -134,-402 -335,-762 -587,-1098 -71,-94 -145,-171 -217,-265 -49,-63 -185,-188 -251,-232l-951 539c-733,437 -600,830 -714,1530 -37,227 -103,379 -216,529 -187,251 -661,526 -972,526 3,-37 25,-103 37,-140l137 -422c33,-97 61,-182 94,-279 137,-412 140,-265 -210,-732 -91,-121 -231,-286 -312,-408 -47,4 -89,24 -133,37 -51,15 -86,28 -135,42l-544 168c-41,14 -92,29 -135,42 -84,25 -66,1 -94,85 -29,89 -56,177 -84,262 -35,105 -231,735 -264,803 -107,-28 -264,-317 -313,-414 -209,-414 -196,-1013 86,-1396 82,-112 168,-203 277,-290 134,-108 308,-203 487,-267 434,-156 911,-37 1365,-142 500,-115 639,-265 1036,-471l238 -135c56,-33 204,-96 236,-144 -143,-34 -291,-110 -579,-174 -585,-131 -1285,-109 -1858,73 -28,9 -50,17 -84,26 -29,9 -48,18 -81,29 -109,38 -216,87 -320,129 -100,41 -199,95 -290,150l-274 175c-303,205 -571,469 -794,755 -36,46 -65,87 -97,132 -260,369 -454,773 -564,1214 -55,223 -113,506 -113,776z"/>
 <path class="fil4 str1" d="M13258 -824c-3590,0 -6500,2911 -6500,6500 0,3590 2910,6500 6500,6500 3589,0 6500,-2910 6500,-6500 0,-3589 -2911,-6500 -6500,-6500zm-8 -526c-3866,0 -7000,3134 -7000,7000 0,3866 3134,7000 7000,7000 3866,0 7000,-3134 7000,-7000 0,-3866 -3134,-7000 -7000,-7000z"/>
</symbol>
 <g id="Layer_x0020_1">
  <metadata id="CorelCorpID_0Corel-Layer"/>
  <path class="fil5" style="mask:url(#id0)" d="M13102 -388c-8206,0 -14858,2887 -14858,6448 0,3561 6652,6448 14858,6448 8206,0 14858,-2887 14858,-6448 0,-3561 -6652,-6448 -14858,-6448z"/>
  <g id="_2967317523232">
   <g>
    <g>
     <path class="fil6" d="M7085 8440c280,-63 580,-28 832,117 40,-311 80,-623 120,-934 -320,269 -625,553 -952,817z"/>
     <path class="fil6" d="M1129 4963c-20,87 -21,177 -17,266 900,634 2742,1520 511,115 -226,-143 -311,-211 -494,-381z"/>
     <line class="fil6" x1="16881" y1="2270" x2="16881" y2= "2270" />
     <path class="fil6" d="M14811 9247c11,-4 22,-8 34,-11 -7,-2 -27,13 -34,11z"/>
     <path class="fil6" d="M23425 7065c-85,-60 -172,-121 -258,-181 144,230 499,847 258,181z"/>
     <path class="fil6" d="M24480 6896c-69,61 -111,48 -181,126 649,1324 455,735 181,-126z"/>
     <path class="fil6" d="M22626 7163c-50,18 -100,36 -150,54 651,869 489,614 150,-54z"/>
     <path class="fil6" d="M14744 9270c0,0 -6,-2 -6,-2 7,27 29,88 30,113 0,-30 0,-85 -24,-111z"/>
     <path class="fil6" d="M24980 5238c-23,-8 -37,-10 -60,0 137,243 155,242 60,0z"/>
     <path class="fil6" d="M23774 2841c776,887 1038,1041 355,17 -116,-41 -243,22 -355,-17z"/>
     <path class="fil6" d="M22447 5810c78,-51 160,-107 246,-150 -337,-2 -769,-33 -246,150z"/>
     <path class="fil6" d="M24762 4465c-238,48 -491,58 -733,-29 -201,505 -774,616 -1386,692 -109,105 -219,210 -328,315 684,-207 1368,-416 2049,-627 117,-118 267,-242 398,-351z"/>
     <path class="fil6" d="M25797 5027c50,-97 99,-195 148,-292 -150,77 -309,144 -464,214 116,4 211,38 316,78z"/>
     <path class="fil6" d="M26065 5436c-62,60 -109,55 -183,103 -266,3057 -42,1627 183,-103z"/>
     <path class="fil6" d="M21798 8482c758,1313 577,714 198,-101 -64,-16 -157,72 -198,101z"/>
     <path class="fil6" d="M3265 1528c-22,1 -44,3 -67,5 476,549 440,462 67,-5z"/>
     <path class="fil6" d="M6785 1832c10,-220 20,-441 16,-663 -246,143 -488,292 -724,445 0,107 -1,215 -1,322 229,-56 464,-95 709,-104z"/>
     <path class="fil6" d="M4115 5066c3,13 6,26 9,40 6,-1 18,-2 18,-2 -9,-13 -18,-26 -27,-38z"/>
     <path class="fil6" d="M3081 2139c95,113 206,227 292,343 0,-6 -2,-41 10,-42 -85,-109 -171,-217 -258,-326 143,-49 306,-64 467,-37 134,-63 269,-124 407,-183 -52,-25 -105,-50 -157,-75 -103,59 -215,114 -328,161 -209,-138 -424,-270 -645,-396 2,21 -2,62 -35,66 65,165 129,330 192,495 18,-2 37,-4 55,-6z"/>
     <path class="fil6" d="M4323 4096c40,-1 81,-3 122,-4 -4,-27 -8,-54 -13,-81 -44,30 -102,45 -120,86 0,0 11,-1 11,-1z"/>
     <polygon class="fil6" points="18693,3711 18693,3711 "/>
     <path class="fil6" d="M4254 5812c-57,-33 -125,-154 -140,-29 40,10 80,21 120,31 0,14 1,27 2,41 228,247 120,91 18,-43z"/>
     <path class="fil6" d="M4743 7515c-5,28 -11,55 -15,83 8,13 16,26 24,39 14,-1 27,-1 41,-2 -6,-13 -13,-27 -19,-40 3,0 7,0 11,-1 -14,-28 -31,-48 -42,-79z"/>
     <path class="fil6" d="M4490 4314c-4,0 -7,0 -11,0 4,0 7,0 11,0z"/>
     <path class="fil6" d="M4924 7527c24,-41 51,-43 86,-3 -10,-40 -20,-80 -31,-120 -17,41 -37,82 -55,123z"/>
     <path class="fil6" d="M4286 4443c-31,96 -47,210 -59,309 256,-72 274,-102 403,-299 -13,54 -25,108 -36,163 265,-54 325,-7 529,-184 -15,47 -29,94 -43,141 95,-40 191,-78 288,-115 -3,-33 -14,-65 -17,-101 -160,-302 -330,-601 -510,-897 -72,114 -141,229 -207,345 -130,36 -153,-109 -263,208 -41,124 -15,277 -150,311 -409,255 -297,250 65,119z"/>
     <path class="fil6" d="M4264 4017c10,13 20,27 30,40 32,-70 67,-138 102,-207 -45,55 -89,111 -132,167z"/>
     <path class="fil6" d="M4096 5026c-23,-39 -46,-78 -70,-117 -10,43 -28,85 -44,126 41,10 82,21 124,31 -4,-13 -7,-27 -10,-40z"/>
     <path class="fil6" d="M3869 5645c0,10 -3,85 -18,86 0,0 -2,0 -3,0 2,1 3,1 4,2 34,37 58,71 87,111 -21,-66 -49,-132 -70,-199z"/>
     <path class="fil6" d="M4102 7639c177,101 167,165 405,125 5,-17 5,-24 4,-43 -4,-7 -34,-54 -37,-57 -331,-69 -292,-194 -372,-25z"/>
     <path class="fil6" d="M4715 1945c115,98 563,540 678,559 -201,-211 -410,-417 -627,-619 -17,20 -34,40 -51,60z"/>
     <path class="fil6" d="M3851 4636c-60,40 -142,58 -192,103 12,40 24,80 36,120 90,-11 196,-20 264,-68 -35,-52 -71,-103 -108,-155z"/>
     <path class="fil6" d="M3486 4118c33,113 67,226 100,340 23,-38 47,-75 71,-111 -56,-77 -113,-153 -171,-229z"/>
     <path class="fil6" d="M3524 4920c21,-2 42,-4 63,-6 -13,-40 -26,-80 -40,-120 -2,40 -28,43 -33,85 3,14 7,27 10,41z"/>
     <path class="fil6" d="M3520 2757c-159,-70 -319,-137 -482,-200 8,26 16,53 24,80 217,196 415,402 589,622 -44,-168 -87,-335 -131,-502z"/>
     <path class="fil6" d="M3392 4295c38,82 61,184 26,264 26,94 53,187 80,281 10,-64 16,-141 0,-206 -82,-272 -154,-547 -227,-821 4,33 -20,84 -67,87 24,80 47,160 71,240 70,45 94,90 117,155z"/>
     <path class="fil6" d="M7266 2204c9,-106 17,-213 25,-320 -26,-43 -53,-86 -80,-129 25,2 50,5 74,8 8,-100 16,-200 23,-300 -95,69 -205,124 -306,189 -5,62 -27,136 -42,197 146,-10 258,271 306,355z"/>
     <path class="fil6" d="M3336 2014c106,100 771,812 861,808 -3,-21 -7,-41 -10,-61 -263,-382 -602,-725 -943,-1068 31,107 61,214 92,321z"/>
     <path class="fil6" d="M4396 5660c-62,-17 -124,-33 -186,-49 60,200 118,400 175,601 -8,-185 0,-369 11,-552z"/>
     <path class="fil6" d="M18351 7218c-23,27 -46,74 -68,106 170,-98 322,-143 432,-287 -118,48 -257,120 -364,181z"/>
     <path class="fil6" d="M12790 8800c217,98 77,248 357,52 -144,-59 -212,-180 -357,-52z"/>
     <path class="fil6" d="M7024 9058c-12,-8 -24,-16 -36,-24 13,15 34,63 37,65 -5,-4 -2,-34 -1,-41z"/>
     <path class="fil6" d="M3097 7542c316,-122 361,-282 691,-106 18,-40 24,-84 41,-125 -79,-24 -158,-45 -237,-66 75,-17 149,-36 223,-56 -12,-12 -39,-37 -61,-36 278,-138 125,-283 219,-569 -50,4 -70,-17 -79,-55 -320,264 -315,79 -451,93 -381,297 -439,505 -662,878 112,32 205,27 316,42z"/>
     <path class="fil6" d="M3629 6998c21,-2 17,-26 19,-42 -36,22 -92,47 -19,42z"/>
     <path class="fil6" d="M6734 4427c-132,138 -236,314 -402,428 17,-19 33,-38 49,-56 153,138 301,290 454,425 6,0 8,-40 20,-39 -112,-143 -248,-286 -382,-419 117,-36 242,-63 365,-86 -34,-85 -69,-169 -104,-253z"/>
     <path class="fil6" d="M5944 3055c-3,0 -39,-2 -39,-2 0,0 36,2 39,2z"/>
     <path class="fil6" d="M677 8279c-79,-10 -159,-22 -238,-36 79,14 159,26 238,36z"/>
     <path class="fil6" d="M6567 4089c-114,-212 -237,-283 0,0z"/>
     <path class="fil6" d="M7683 6477c33,76 46,157 78,234 11,-80 21,-159 31,-239 -36,2 -73,3 -109,5z"/>
     <path class="fil6" d="M5508 9422c-41,-81 -57,-1 -85,-21 46,87 62,158 85,21z"/>
     <line class="fil6" x1="17939" y1="3313" x2="17939" y2= "3313" />
     <path class="fil6" d="M4564 2228c-38,67 -75,135 -112,203 -203,-45 -404,-97 -599,-165 26,63 5,89 -21,144 174,66 346,134 517,205 -60,109 -119,219 -177,329 92,-51 186,-100 281,-149 1287,873 938,552 130,-62 146,-75 315,-132 482,-178 -164,-112 -331,-221 -501,-327z"/>
     <path class="fil6" d="M2887 2635c-22,86 -54,170 -92,251 72,-88 182,-245 151,-358 -54,6 -57,74 -59,107z"/>
     <path class="fil6" d="M5165 9550c15,169 41,338 79,506 18,88 17,72 56,179 -12,-11 -20,-24 -22,-38 -4,-14 -8,-27 -11,-40 -42,-167 13,44 22,80 45,168 101,326 172,490 -122,42 -216,77 -314,146 101,-29 236,-43 344,-58 -14,2 -11,18 -21,21 -28,-66 -142,-430 -101,-339 45,141 64,328 105,483 -6,-20 -12,-40 -16,-60 42,188 81,376 118,564 -4,-27 -8,-54 -11,-81 -37,-182 -76,-363 -118,-544 -4,-44 2,-81 18,-122 8,-70 -5,-114 33,-1 -10,-41 -21,-81 -33,-121 24,-227 61,1 56,100 34,0 57,3 86,20 -16,-39 -29,-126 -59,-81 3,-33 6,-67 10,-101 -102,-444 -158,-887 -268,-1333 -10,28 -111,321 -125,330z"/>
     <line class="fil6" x1="20375" y1="4013" x2="20375" y2= "4013" />
     <line class="fil6" x1="20375" y1="4013" x2="20375" y2= "4013" />
     <path class="fil6" d="M1752 5501c30,28 49,46 0,0z"/>
     <path class="fil6" d="M2571 5412c-17,3 -12,30 -10,41 18,26 35,52 53,78 -15,-12 -30,-25 -45,-38 -8,37 -9,44 -1,82 158,-75 315,-151 467,-233 1180,1402 1052,1165 93,-47 96,-31 208,-53 313,-62 -191,-477 -366,-953 -519,-1436 -156,184 -373,343 -564,505 130,317 186,663 205,988 2,-15 6,-57 24,-63 -26,-426 112,-260 266,45 63,177 -147,66 -254,15 0,60 16,151 6,204 -6,-32 -28,-48 -34,-79z"/>
     <path class="fil6" d="M5435 9300c-11,-18 -24,-60 -24,-60 0,0 3,0 3,0 -4,13 -8,27 -11,40 55,84 103,168 32,20z"/>
     <path class="fil6" d="M5654 8357c-4,20 -8,40 -11,60 180,163 72,32 11,-60z"/>
     <path class="fil6" d="M5470 8413c-518,-305 -272,-62 -55,140 17,-47 36,-94 55,-140z"/>
     <path class="fil6" d="M5837 8325c0,0 -4,0 -4,0 18,37 17,40 4,0z"/>
     <path class="fil6" d="M4605 5629c-7,1 -8,16 -9,21 60,39 48,-2 9,-21z"/>
     <path class="fil6" d="M7130 4650c7,-87 -379,-452 -462,-551 45,84 90,169 133,254 132,301 67,323 329,297z"/>
     <path class="fil6" d="M5981 4769c5,1 7,1 0,0z"/>
     <path class="fil6" d="M6565 3666c-7,-1 -13,-1 -20,-2 36,37 71,74 106,111 -28,-37 -57,-73 -86,-109z"/>
     <path class="fil6" d="M4602 8000c6,-35 15,-71 26,-106 -3,0 -5,1 -8,1 15,-44 33,-87 54,-129 -106,-47 -100,-42 -107,94 22,81 36,159 48,241 -323,181 -352,378 -803,621 -59,73 -298,435 -261,118 -782,324 -438,52 -883,54 -112,91 -360,638 -347,223 -254,234 -340,143 -589,475 42,31 84,38 137,36 427,-16 922,13 1314,194 142,-191 284,-382 417,-577 182,-139 360,-283 515,-441 2,-230 49,-169 135,-317 -7,42 -15,83 -22,125 -112,10 -96,25 -4,41 -8,35 -22,71 -36,105 190,-191 208,-285 512,-395 -8,-82 -6,-169 0,-250 11,95 24,190 40,285 -3,-14 -6,-27 -9,-40 16,92 34,183 55,275 -36,20 -64,37 -95,61 35,-10 70,-19 107,-28 7,-256 137,425 140,437 -54,18 -103,34 -153,56 -353,93 -295,-126 -454,120 9,0 26,-2 26,-2 -729,1540 -115,1040 863,698 -216,-640 10,-1572 -618,-1975z"/>
     <path class="fil6" d="M3985 5591c4,-15 9,-29 13,-43 -36,-10 -71,-20 -107,-30 28,94 55,187 83,280 -6,-67 1,-85 9,-145 -45,-62 -97,-96 -18,-60 6,13 11,26 16,39 34,37 69,75 99,114 -2,-34 3,-47 -6,-82 -27,-30 -61,-44 -89,-73z"/>
     <path class="fil6" d="M18742 1833c-8,-3 -23,-7 -23,-7 0,0 -15,16 -15,16 13,-3 25,-6 38,-9z"/>
     <path class="fil6" d="M13161 8128c9,-11 17,-23 26,-35 -46,15 -85,20 -26,35z"/>
     <path class="fil6" d="M13076 7546c47,79 22,-44 19,-58 -6,20 -12,39 -19,58z"/>
     <path class="fil6" d="M9227 2498c-42,-7 -96,24 -118,-20 308,232 495,362 118,20z"/>
     <path class="fil6" d="M10818 1869c305,26 609,54 914,84 -199,156 -396,313 -591,471 7,2 23,5 23,5 -46,830 -136,3069 -344,3738 273,93 769,391 886,609 285,-362 154,-217 140,-50 -335,408 -176,542 -826,594 -26,-34 -53,-67 -79,-100 650,3195 -249,3480 1163,1965 86,-54 172,-108 259,-162 71,-245 142,-489 213,-734 123,322 259,790 441,1082 150,228 138,-293 138,-309 443,117 1940,-1078 855,-1062 -9,26 -18,51 -27,76 352,209 204,407 -200,446 -60,137 -120,273 -180,410 -5,-138 0,-278 7,-415 -68,0 -243,12 -299,-13 -79,-53 -89,-409 -98,-487 58,-7 216,-37 271,-21 69,36 105,353 119,415 -8,-148 -15,-295 -24,-443 14,4 27,7 41,11 5,-103 16,-204 23,-306 -18,6 -38,12 -56,19 -1962,643 -486,-157 186,-546 280,-165 568,-329 837,-504 446,-151 894,-297 1345,-440 -244,168 -486,336 -727,506 -822,-49 -981,-17 -146,126 -216,137 -435,271 -653,404 234,116 362,275 314,484 88,10 176,21 265,32 220,-153 439,-306 657,-462 336,-106 674,-210 1013,-312 -9,-17 -17,-33 -26,-50 48,7 96,15 144,22 -6,-5 6,-33 8,-40 164,28 479,-120 635,-166 -125,81 -250,162 -375,244 26,72 -46,55 -127,88 -161,120 -321,241 -480,362 -1062,-87 -1289,-61 -196,131 -259,164 -524,324 -789,483 66,317 -1163,678 -1612,1031 890,-110 488,161 1227,-429 219,-105 440,-209 661,-312 -31,-16 -62,-32 -93,-48 340,-150 157,-2 258,-30 -10,12 -19,23 -29,34 198,337 44,-31 5,-125 143,-32 600,-101 360,128 -395,261 -371,58 -441,59 -109,108 -218,216 -327,324 -490,25 -651,59 -90,100 -73,54 -143,111 -212,169 156,24 853,85 971,55 -30,33 -61,66 -91,99 45,13 85,25 117,56 143,-73 556,-211 732,-156 265,-190 418,-159 279,-421 1569,-308 1658,-1010 2040,-1153 104,-141 234,-246 360,-371 -73,-138 -146,-275 -221,-412 -168,-10 -855,719 -1150,757 -168,-40 681,-796 772,-878 29,-12 57,-25 85,-37 445,-379 1015,-751 1536,-1073 445,-121 891,-242 1337,-362 -300,37 -605,63 -911,77 -504,-184 -705,-662 -1294,-548 -340,146 -804,355 -1191,410 -245,116 -481,246 -719,370 362,69 748,245 866,541 108,560 -850,633 -1388,629 -138,33 -291,57 -440,57 -173,-277 -350,-553 -530,-827 35,-4 70,-8 106,-11 -216,-230 -820,286 -296,-295 -43,-33 -85,-66 -128,-99 1514,-332 461,416 2409,-782 150,-169 351,-323 537,-468 -112,-129 -575,-705 -766,-696 -300,-153 413,-1362 -501,-1385 49,259 -281,354 -555,364 -127,118 -254,235 -380,353 -553,18 -696,50 -94,99 -223,200 -762,683 -1072,748 -197,-15 653,-789 734,-863 235,-109 471,-217 708,-324 -329,33 -185,-220 -361,-289 -288,31 -575,64 -861,98 -75,167 -150,335 -224,502 -25,-157 -30,-330 -31,-487 -44,14 -89,24 -134,36 -562,120 -1223,191 -1299,-424 1,-785 87,-566 -648,-1002 -488,-293 -1045,-523 -1631,-647 -366,284 -727,574 -1079,868 730,661 844,770 213,42 -21,-18 -41,-36 -62,-53 -27,-15 213,-44 235,-16 325,-26 1021,-22 1262,203 232,254 -895,377 -1097,403 -1164,-430 -875,-101 -1912,175 659,1819 225,1093 1406,51z"/>
     <path class="fil6" d="M16049 5266c50,21 100,43 150,64 -28,-108 -54,-236 -94,-341 -177,-4 -91,-1 7,2 -44,43 -86,87 -128,131 36,31 47,104 65,144z"/>
     <path class="fil6" d="M18710 1424c-110,-33 -155,-23 -241,34 695,716 747,753 241,-34z"/>
     <path class="fil6" d="M15661 6014c-21,-6 -42,-12 -63,-18 114,93 150,154 63,18z"/>
     <path class="fil6" d="M21899 7228c19,-214 38,-428 68,-641 -111,59 -1021,487 -911,114 -215,116 -465,238 -726,289 125,390 -375,545 -730,503 -31,-74 -61,-147 -92,-221 -79,78 -173,142 -265,211 403,95 877,530 -35,520 5,227 51,-164 -377,89 0,1 25,-11 27,-12 -231,152 -462,304 -692,456 6,2 13,4 19,6 -93,57 -171,110 -258,173 523,293 304,633 -294,711 -2,27 -118,88 -145,102 171,64 183,156 361,31 -70,38 -114,-31 -177,-57 41,-22 82,-44 123,-67 115,147 100,121 19,6 61,-20 185,-57 249,-26 53,-30 109,-63 158,-97 517,-22 1033,-42 1550,-62 -103,72 -207,144 -310,216 166,-28 308,45 161,203 -41,106 -451,265 -593,291 -189,-41 -378,-82 -566,-123 63,58 128,123 181,187 -156,100 -319,195 -481,289 -17,20 -43,49 -70,62 383,98 556,-170 839,-340 495,-145 991,-289 1486,-434 -56,-34 -112,-68 -168,-101 -99,85 -102,36 -172,4 20,-14 41,-28 61,-43 32,128 24,86 6,2 19,-6 41,-6 62,0 -164,-100 -329,-199 -494,-297 56,-9 111,-19 167,-28 -2,-1 -4,-2 -6,-3 76,-9 153,-19 229,-28 -289,-186 -580,-369 -874,-550 219,-20 437,-39 656,-58 -220,-125 -441,-248 -664,-370 195,-21 391,-41 586,-62 144,69 131,384 301,379 -56,-130 -120,-258 -191,-385 361,-6 953,6 1200,261 66,100 -70,163 -161,201 178,25 406,75 561,154 65,-5 176,-46 240,-65 29,-269 70,-537 88,-808 -492,106 -268,281 -698,14 64,-28 129,-56 194,-83 150,416 96,183 41,-29 44,-1 96,-23 131,-40 18,-117 287,-360 386,-444z"/>
     <path class="fil6" d="M21311 5741c-2,-322 -184,-409 0,0z"/>
     <path class="fil6" d="M18894 6713c-18,36 -37,73 -55,109 174,-88 464,-227 55,-109z"/>
     <path class="fil6" d="M20380 6154c0,0 6,2 6,2 -2,0 -4,-1 -6,-2z"/>
     <path class="fil6" d="M14254 573c13,-164 8,-277 55,-441 -60,-15 -120,-29 -181,-43 60,151 102,329 126,484z"/>
     <path class="fil6" d="M15407 1465c46,-145 63,-285 109,-429 0,0 -32,-8 -32,-8 -58,172 -154,333 -211,505 39,11 103,-77 134,-68z"/>
     <path class="fil6" d="M15151 1668c-11,32 -21,64 -32,96 35,45 124,212 155,227 -8,-117 -55,-216 -123,-323z"/>
     <path class="fil6" d="M20541 1327c-2,-36 -4,-72 -5,-107 -521,-44 -336,25 5,107z"/>
     <path class="fil6" d="M19126 2348c-18,17 -37,11 -67,43 149,731 116,386 67,-43z"/>
     <path class="fil6" d="M18533 2044c14,4 22,-15 29,-12 -5,-16 -10,-31 -15,-47 3,1 5,2 8,2 -307,-27 -253,31 -22,57z"/>
     <path class="fil6" d="M19130 2939c52,-33 104,-66 156,-100 -295,-13 -304,-183 -428,-383 -129,117 -282,237 -439,332 208,1 107,49 228,68 -6,-20 -6,-65 -6,-65 173,15 344,66 489,148z"/>
     <path class="fil6" d="M18384 3366c-90,-48 -160,-27 -71,-126 -21,-105 -43,-209 -64,-314 -29,12 -32,98 -74,126 50,137 57,261 106,389 32,-27 71,-47 103,-75z"/>
     <path class="fil6" d="M18020 2817c142,-134 284,-268 430,-398 -313,161 -632,342 -970,471 180,-25 360,-49 540,-73z"/>
     <path class="fil6" d="M18025 6166c15,1 25,-25 29,-34 -32,10 -78,18 -29,34z"/>
     <path class="fil6" d="M21327 4999c-305,-100 -5057,-140 -3,426 -10,-4 -12,-61 -13,-68 -551,122 -159,-232 16,-358z"/>
     <path class="fil6" d="M19674 3953c865,1138 604,626 123,-46 -47,13 -83,20 -123,46z"/>
     <path class="fil6" d="M15583 597c-29,-8 -31,-9 0,0z"/>
     <path class="fil6" d="M15662 700c9,-25 17,-51 26,-76 -35,-9 -70,-18 -105,-27 9,-26 17,-51 25,-77 35,9 70,18 105,27 20,-57 39,-114 58,-172 -263,174 -525,349 -784,525 5,64 11,127 16,191 141,-73 306,-130 487,-83 37,-112 106,-294 93,-411 10,48 15,86 79,103z"/>
     <path class="fil6" d="M22613 2935c-21,13 -39,8 -63,0 184,271 212,253 63,0z"/>
     <path class="fil6" d="M21630 1949c-425,209 -832,444 -1264,656 392,384 296,648 -291,712 54,20 100,53 140,87 -13,-4 -33,3 -44,7 346,-60 562,-42 920,-129 -939,320 -1549,340 442,39 -288,182 -575,364 -862,547 49,171 -3,363 -158,480 388,-29 1082,46 1426,217 -1,-255 4,-510 13,-764 -247,98 -249,-1 -435,-102 68,-35 136,-69 204,-103 184,455 19,98 42,-7 50,-21 104,-40 158,-55 -9,-321 -40,-645 -93,-967 -44,-22 -88,-43 -131,-65 43,-7 86,-14 129,-21 -10,-45 -133,-577 -165,-564 -3,46 -1,145 -31,32z"/>
     <path class="fil6" d="M21365 5909c-20,21 -40,43 -60,65 352,455 150,197 60,-65z"/>
     <line class="fil6" x1="14297" y1="2551" x2="14297" y2= "2551" />
     <path class="fil6" d="M24287 5285c-157,58 -313,116 -470,174 -30,240 -77,475 -114,714 53,-24 106,-48 159,-72 -61,43 -121,86 -182,128 0,15 -1,29 -2,43 -1,-1 -3,-1 -5,-2 -29,154 -66,306 -110,456 503,-400 444,-452 949,-275 21,-209 40,-419 57,-629 -218,-81 941,-1232 -282,-537z"/>
     <path class="fil6" d="M23150 9021c20,-187 42,-371 79,-556 -1614,-1316 -536,14 -79,556z"/>
     <path class="fil6" d="M23039 3872c7,-61 22,-148 11,-210 -622,-429 -185,18 -11,210z"/>
     <path class="fil6" d="M16823 8877c-23,-121 -16,-281 -30,-410 -35,16 -39,16 -63,44 13,66 32,334 93,366z"/>
     <path class="fil6" d="M16570 8631c-9,-10 -17,-19 -26,-29 12,28 33,97 26,29z"/>
     <path class="fil6" d="M14092 9086c-23,15 -45,30 -67,44 4,9 8,17 13,25 251,293 157,99 54,-69z"/>
     <path class="fil6" d="M17095 7969c30,-27 65,-47 92,-77 -162,-2 -420,12 -92,77z"/>
     <path class="fil6" d="M13841 8913c79,81 112,211 224,166 -89,-165 -85,-270 -224,-166z"/>
     <path class="fil6" d="M6550 7594c-15,-2 -30,17 -45,16 22,22 43,44 65,66 184,191 29,-9 -20,-82z"/>
     <path class="fil6" d="M7419 3433c17,2 5,53 1,60 73,-45 147,-90 221,-134 48,-90 261,-533 146,-123 161,-115 326,-227 492,-337 84,-170 207,-431 332,-579 126,-131 -90,409 -99,430 642,-392 462,-279 851,-920 -467,9 -934,27 -1398,55 -181,337 -365,670 -560,1001 -214,362 -415,732 -602,1105 183,-152 371,-300 564,-443 13,-56 29,-69 52,-115z"/>
     <path class="fil6" d="M10934 10120c14,-3 29,-7 43,-10 -12,18 -23,35 -35,53 30,61 70,142 81,205 11,-235 -62,-424 -141,-652 -141,137 -74,11 -22,-66 -46,-164 -98,-328 -160,-490 56,-18 134,-20 195,-17 -174,-818 -367,-1634 -583,-2448 -137,193 -680,293 -957,342 -858,-427 -1095,-1186 -361,-473 0,0 3,-20 3,-20 -12,-2 -25,-5 -38,-7 15,-11 31,-22 46,-33 150,-383 540,-768 999,-955 -7,-25 -661,-2184 -818,-1738 35,440 -52,875 -206,1286 -66,-432 -139,-863 -218,-1295 23,-30 47,-60 72,-90 -193,-87 -696,-402 -855,-309 200,169 476,354 702,508 -286,258 -583,513 -880,762 3,27 6,55 10,82 -86,-125 -181,39 -306,122 126,305 251,609 357,917 68,-43 210,125 45,-54 30,-21 68,-36 108,-45 29,-259 57,-518 86,-777 236,449 630,1318 65,1650 178,497 351,980 490,1482 91,-49 374,-186 492,-114 128,117 -284,431 -376,501 496,1519 610,1037 1779,751 72,37 -2,81 137,-10 -11,18 -23,36 -35,54 -66,-13 -64,4 -23,35 -7,0 -21,12 -24,16 26,54 32,131 98,83 -16,17 -32,34 -48,51 90,236 185,469 278,703z"/>
     <path class="fil6" d="M11169 9640c7,1 13,3 19,4 2,-6 4,-13 6,-19 -6,-2 -13,-3 -19,-5 -2,7 -4,13 -6,20z"/>
     <path class="fil6" d="M7820 6355c74,179 147,358 218,538 -5,33 -10,66 -14,99 -59,39 -119,78 -179,115 50,69 100,137 149,205 -219,-167 -148,-210 -400,23 65,-326 -667,-182 -882,-168 13,-73 -124,32 -142,46 0,0 5,0 5,0 0,0 -21,-2 -21,-2 4,1 7,1 11,1 -47,16 -93,32 -138,48 1,0 3,0 5,1 -79,46 -157,93 -232,141 3,1 6,1 9,1 -37,24 -73,48 -108,73 142,51 285,103 427,156 -15,0 -29,10 -40,17 -5,-16 54,96 -5,-1 -13,19 -27,38 -41,57 179,11 62,-52 285,8 -1458,1281 -764,897 -543,272 135,-436 -340,242 -20,-444 -1481,807 -1480,995 -864,-1048 -515,673 -404,1021 -686,-152 66,-141 126,-613 194,-697 182,-82 962,-605 344,-727 240,-354 479,-707 721,-1061 -162,23 -417,86 -558,-24 165,-84 471,-148 664,-191 104,-148 212,-295 323,-440 96,88 190,176 284,265 -289,475 85,212 168,339 -69,124 -186,269 -267,398 -184,4 -367,11 -549,20 -167,230 -490,737 -377,1008 -32,32 -64,64 -96,97 377,-40 631,-353 816,-578 10,117 18,130 146,113 -72,27 -143,55 -214,83 298,91 594,187 888,286 -383,820 391,287 425,335 102,262 200,524 294,788z"/>
     <path class="fil6" d="M6116 3228c-29,-47 -57,-111 -105,-48 74,86 148,171 221,257 -38,-70 -77,-140 -116,-209z"/>
     <path class="fil6" d="M7959 8057c37,52 15,32 3,-20 -1,6 -2,13 -3,20z"/>
     <path class="fil6" d="M17489 2491c0,0 0,0 0,0l0 0c0,0 0,0 0,0z"/>
     <path class="fil6" d="M10441 4185c-102,60 -209,137 -323,182 29,80 52,163 87,241 62,-150 213,-339 328,-466 -31,14 -62,29 -92,43z"/>
     <path class="fil6" d="M11186 9582c4,-6 8,-12 12,-18 10,-32 19,-64 29,-96 -14,38 -27,76 -41,114z"/>
     <path class="fil6" d="M11956 9045c-30,-49 -60,-97 -90,-146 -5,61 -3,123 -7,184 32,-12 64,-25 97,-38z"/>
     <path class="fil6" d="M8589 8669c-56,66 -308,448 -414,417 4,34 7,69 11,103 88,-26 177,-51 266,-76 -2,0 -4,-1 -6,-1 50,-20 114,-29 171,-31 -11,-5 -10,-33 -10,-42 26,4 55,0 79,-7 -32,-121 -65,-242 -97,-363z"/>
     <path class="fil6" d="M6292 10149c0,9 -2,61 -2,61 1,-63 -7,-120 -16,-183 -139,104 -159,-20 -255,-140 -15,59 -29,118 -43,178 -337,-56 -194,37 -18,120 -24,63 -41,132 -54,198 62,-78 250,-411 388,-234z"/>
     <path class="fil6" d="M7788 9672c6,-60 11,-120 17,-179 -517,-281 -182,26 -17,179z"/>
     <path class="fil6" d="M11399 8807c-72,20 -100,12 -160,24 48,11 96,23 143,34 6,-19 12,-39 17,-58z"/>
     <path class="fil6" d="M9474 7039c159,0 409,27 532,125 -47,-159 -95,-319 -143,-478 -69,61 -137,123 -205,184 7,2 20,4 20,4 -69,55 -137,110 -204,165z"/>
     <path class="fil6" d="M6377 8041c-5,13 -10,26 -16,39 166,261 77,70 16,-39z"/>
     <path class="fil6" d="M6215 8350c-3,13 -6,27 -9,40 106,89 24,-1 9,-40z"/>
    </g>
   </g>
  </g>
  <path class="fil7" d="M24342 9683c-4713,-1906 -15787,-5489 -20774,-4829 -152,20 -2509,162 -2558,154"/>
  <g id="_2967317521344">
   <path class="fil8" d="M25357 8095c-2293,21 -4195,253 -6506,-232 -1393,-285 -2447,-24 -3817,25 -3399,90 -7752,197 -11063,944 -204,-346 -401,-716 -611,-1048 2653,-954 8713,-1054 11664,-1134 1434,-52 2469,-313 3939,-12 1942,414 3545,297 5481,233 305,407 610,813 913,1224z"/>
  </g>
  <path class="fil7" d="M3475 8374c1384,-692 9753,-1069 11554,-1105 1358,-28 2436,-356 3878,-18 2273,531 4200,225 6450,225"/>
  <g id="_2967317519872">
   <path class="fil9" d="M25178 4380c108,64 237,99 224,97 -51,-7 -106,-9 -158,-12 -201,-10 -402,-12 -603,-13 -383,-2 -815,11 -1193,-16 -7402,-581 -14332,-138 -21711,-53 -339,-496 -675,-994 -1006,-1494 7780,-44 15060,-552 22872,57 343,15 697,6 1041,8 1,1 7,9 7,9 235,319 453,621 625,974 74,113 136,222 155,354 40,157 -155,121 -253,89z"/>
  </g>
  <path class="fil7" d="M731 3638c7577,0 15226,-631 22795,53 323,29 1960,-23 2111,75"/>
  <g id="transparent_background.cdr">
   <circle class="fil0" cx="15729" cy="5905" r="4233"/>
   <path class="fil4" d="M14053 2740c-365,193 -688,445 -959,741 -33,36 -31,93 6,126 94,87 165,200 201,332 101,374 -120,759 -494,861 -132,35 -266,31 -388,-7 -47,-14 -97,12 -112,59 -118,383 -173,789 -155,1202 2,49 44,88 93,85 320,-13 618,196 706,518 87,322 -65,653 -349,803 -43,23 -60,77 -37,121 193,365 445,687 741,959 36,33 93,30 126,-6 86,-94 200,-165 332,-201 374,-101 759,120 860,493 36,133 32,267 -6,389 -14,47 12,97 59,112 383,118 789,173 1202,155 49,-2 87,-44 85,-93 -13,-320 195,-618 518,-706 322,-87 653,65 803,349 23,43 77,60 120,37 366,-193 688,-445 959,-741 34,-36 31,-93 -5,-126 -94,-86 -166,-200 -201,-332 -102,-374 119,-759 493,-860 133,-36 267,-32 389,6 47,14 97,-12 112,-59 118,-383 173,-789 155,-1202 -2,-49 -44,-87 -93,-85 -320,13 -619,-195 -706,-518 -87,-322 65,-653 348,-803 44,-23 61,-77 38,-121 -193,-365 -445,-687 -741,-959 -36,-33 -93,-30 -126,6 -87,94 -200,165 -332,201 -374,102 -759,-119 -861,-493 -35,-133 -31,-267 7,-389 14,-47 -12,-97 -59,-112 -383,-118 -789,-173 -1202,-155 -49,2 -88,44 -86,93 14,320 -195,619 -517,706 -322,87 -653,-65 -803,-348 -23,-44 -77,-61 -121,-38zm-746 3091c0,266 6,404 69,658 40,158 92,301 155,437 99,214 199,359 342,536 63,78 212,232 295,297 29,22 51,43 80,65 127,99 314,216 458,280 285,127 619,223 955,223 371,0 549,-29 874,-136l212 -87c34,-17 63,-27 98,-48 32,-19 63,-33 94,-52 16,-9 31,-17 45,-26l137 -90c147,-100 347,-280 465,-424 56,-69 143,-182 188,-257 56,-95 85,-139 134,-239 9,-17 14,-34 24,-52 59,-116 122,-317 152,-439 103,-415 85,-856 -31,-1265 -24,-81 -86,-248 -123,-322 -97,-193 -226,-422 -377,-578 -14,-15 -19,-25 -35,-40 -16,-16 -21,-25 -35,-41 -41,-44 -82,-76 -114,-108 -14,-14 -21,-23 -36,-34l-209 -166c-80,-55 -185,-122 -273,-166 -330,-164 -670,-274 -1059,-274 -341,0 -553,28 -862,133 -38,13 -69,26 -106,40 -160,64 -248,115 -391,201 -29,17 -62,40 -90,61 -59,43 -108,75 -166,126 -211,184 -312,288 -485,546 -231,343 -385,830 -385,1241z"/>
   <path class="fil4" d="M13530 5816l0 30c161,0 322,38 474,81 165,46 322,108 475,176 97,44 230,100 317,153l368 193c85,42 166,83 250,124 51,26 212,107 262,111 -6,26 -45,29 -66,35 -377,110 -801,166 -1176,16 -168,-67 -278,-136 -415,-247 -16,-12 -24,-24 -40,-36 -27,-21 -49,-47 -74,-72 -52,-52 -93,-101 -140,-159 -44,-55 -82,-113 -121,-171l-58 -89c-13,-21 -46,-78 -61,-90 0,325 65,677 207,965l72 140c17,30 32,58 50,86 54,85 112,167 175,244 121,149 276,292 433,401 83,57 167,111 258,156l191 87c36,14 66,26 103,38 474,158 954,159 1427,1 197,-65 385,-167 553,-280 109,-74 207,-163 300,-256 47,-47 92,-92 133,-144 340,-430 507,-878 507,-1438 -33,22 -88,135 -114,174l-89 128c-182,245 -404,440 -692,556 -391,157 -794,101 -1187,-8 -16,-5 -24,-7 -39,-12 -17,-6 -26,-7 -31,-25 36,-3 102,-37 132,-49l128 -60c251,-121 493,-254 742,-379 170,-85 342,-164 523,-224 190,-63 411,-126 622,-126 0,-96 -10,-204 -24,-289 -21,-124 -46,-231 -84,-346 -80,-240 -200,-454 -350,-655 -42,-56 -87,-102 -130,-158 -29,-37 -110,-112 -149,-138l-568 322c-437,260 -358,494 -426,912 -22,136 -61,226 -128,316 -112,149 -395,314 -581,314 2,-23 15,-62 23,-84l82 -252c19,-57 36,-108 55,-166 82,-246 84,-159 -125,-437 -54,-72 -138,-171 -186,-243 -28,2 -53,14 -79,22 -31,9 -51,16 -81,25l-324 100c-25,8 -55,17 -81,25 -50,15 -40,1 -56,51 -17,53 -33,105 -50,156 -21,63 -138,439 -157,479 -64,-17 -158,-189 -187,-247 -125,-247 -117,-604 51,-833 49,-66 100,-121 165,-173 80,-64 184,-121 291,-159 259,-93 543,-22 814,-85 298,-68 381,-158 618,-280l142 -81c34,-20 122,-57 141,-86 -85,-20 -174,-66 -345,-104 -349,-78 -767,-65 -1109,44 -17,5 -30,10 -50,15 -18,5 -29,11 -48,18 -66,22 -129,51 -191,77 -60,24 -119,56 -173,89l-164 104c-180,122 -340,280 -474,451 -21,27 -38,51 -57,79 -156,220 -271,461 -337,724 -33,133 -67,301 -67,463z"/>
   <path class="fil4" d="M15734 2043c-2142,0 -3878,1736 -3878,3877 0,2142 1736,3878 3878,3878 2141,0 3878,-1736 3878,-3878 0,-2141 -1737,-3877 -3878,-3877zm-5 -315c-2306,0 -4176,1870 -4176,4177 0,2306 1870,4176 4176,4176 2307,0 4176,-1870 4176,-4176 0,-2307 -1869,-4177 -4176,-4177z"/>
  </g>
 </g>
</svg>
